<?xml version="1.0" encoding="UTF-8" standalone="no"?>
<svg width="27px" height="28px" viewBox="0 0 27 28" version="1.1" xmlns="http://www.w3.org/2000/svg" xmlns:xlink="http://www.w3.org/1999/xlink">
    <!-- Generator: Sketch 46.2 (44496) - http://www.bohemiancoding.com/sketch -->
    <title>abc</title>
    <desc>Created with Sketch.</desc>
    <defs></defs>
    <g id="Tutor-Application" stroke="none" stroke-width="1" fill="none" fill-rule="evenodd">
        <g id="Select-Subject-Icon" transform="translate(-359.000000, -289.000000)" fill-rule="nonzero">
            <g id="abc" transform="translate(359.000000, 289.000000)">
                <path d="M16.7142857,12.7272727 L12.2142857,12.7272727 C9.73285714,12.7272727 7.71428571,10.7284545 7.71428571,8.27272727 C7.71428571,5.817 9.73285714,3.81818182 12.2142857,3.81818182 L16.7142857,3.81818182 C17.424,3.81818182 18,4.38836364 18,5.09090909 L18,11.4545455 C18,12.1570909 17.424,12.7272727 16.7142857,12.7272727 Z M12.2142857,6.36363636 C11.151,6.36363636 10.2857143,7.22018182 10.2857143,8.27272727 C10.2857143,9.32527273 11.151,10.1818182 12.2142857,10.1818182 L15.4285714,10.1818182 L15.4285714,6.36363636 L12.2142857,6.36363636 Z" id="Shape" fill="#E86C60"></path>
                <path d="M16.7142857,12.7272727 C16.0045714,12.7272727 15.4285714,12.1570909 15.4285714,11.4545455 L15.4285714,3.81818182 C15.4285714,3.11627273 14.8519286,2.54545455 14.1428571,2.54545455 L11.5714286,2.54545455 C10.8617143,2.54545455 10.2857143,1.97527273 10.2857143,1.27272727 C10.2857143,0.570181818 10.8617143,0 11.5714286,0 L14.1428571,0 C16.2700714,0 18,1.71245455 18,3.81818182 L18,11.4545455 C18,12.1570909 17.424,12.7272727 16.7142857,12.7272727 Z" id="Shape" fill="#E86C60"></path>
                <path d="M1.28571429,28 C0.576,28 0,27.4298182 0,26.7272727 L0,12.7272727 C0,12.0247273 0.576,11.4545455 1.28571429,11.4545455 C1.99542857,11.4545455 2.57142857,12.0247273 2.57142857,12.7272727 L2.57142857,26.7272727 C2.57142857,27.4298182 1.99542857,28 1.28571429,28 Z" id="Shape" fill="#72C472"></path>
                <path d="M5.14285714,28 L1.28571429,28 C0.576,28 0,27.4298182 0,26.7272727 L0,19.0909091 C0,18.3883636 0.576,17.8181818 1.28571429,17.8181818 L5.14285714,17.8181818 C7.9785,17.8181818 10.2857143,20.1020909 10.2857143,22.9090909 C10.2857143,25.7160909 7.9785,28 5.14285714,28 Z M2.57142857,25.4545455 L5.14285714,25.4545455 C6.561,25.4545455 7.71428571,24.3129091 7.71428571,22.9090909 C7.71428571,21.5052727 6.561,20.3636364 5.14285714,20.3636364 L2.57142857,20.3636364 L2.57142857,25.4545455 Z" id="Shape" fill="#72C472"></path>
                <path d="M23.1428571,28 L20.5714286,28 C18.4442143,28 16.7142857,26.2875455 16.7142857,24.1818182 L16.7142857,20.3636364 C16.7142857,18.2579091 18.4442143,16.5454545 20.5714286,16.5454545 L23.1428571,16.5454545 C24.5147143,16.5454545 25.794,17.2753636 26.4818571,18.4513636 C26.838,19.0597273 26.6284286,19.8386364 26.0138571,20.1905455 C25.3992857,20.5424545 24.6124286,20.3356364 24.2569286,19.7272727 C24.0274286,19.3352727 23.5999286,19.0909091 23.1428571,19.0909091 L20.5714286,19.0909091 C19.8623571,19.0909091 19.2857143,19.6617273 19.2857143,20.3636364 L19.2857143,24.1818182 C19.2857143,24.8837273 19.8623571,25.4545455 20.5714286,25.4545455 L23.1428571,25.4545455 C23.6005714,25.4545455 24.0274286,25.2101818 24.2575714,24.8169091 C24.6130714,24.2085455 25.3992857,24.0010909 26.0145,24.353 C26.6290714,24.7049091 26.8386429,25.4831818 26.4831429,26.0915455 C25.7946429,27.2694545 24.5147143,28 23.1428571,28 Z" id="Shape" fill="#43A6DD"></path>
            </g>
        </g>
    </g>
</svg>