<?xml version="1.0" encoding="UTF-8" standalone="no"?>
<svg width="58px" height="64px" viewBox="0 0 58 64" version="1.1" xmlns="http://www.w3.org/2000/svg" xmlns:xlink="http://www.w3.org/1999/xlink">
    <!-- Generator: Sketch 46.2 (44496) - http://www.bohemiancoding.com/sketch -->
    <title>atom</title>
    <desc>Created with Sketch.</desc>
    <defs></defs>
    <g id="Tutor-Application" stroke="none" stroke-width="1" fill="none" fill-rule="evenodd">
        <g id="Select-Subject-Icon" transform="translate(-644.000000, -143.000000)" fill-rule="nonzero">
            <g id="atom" transform="translate(644.000000, 143.000000)">
                <path d="M28.6511628,35.7209302 C26.3945426,35.7209302 24.5581395,33.8845271 24.5581395,31.627907 C24.5581395,29.3712868 26.3945426,27.5348837 28.6511628,27.5348837 C30.9077829,27.5348837 32.744186,29.3712868 32.744186,31.627907 C32.744186,33.8845271 30.9077829,35.7209302 28.6511628,35.7209302 Z" id="Shape" fill="#8680D8"></path>
                <path d="M29.0232558,64 C22.8902532,64 16.372093,52.7846957 16.372093,32 C16.372093,11.2153043 22.8902532,0 29.0232558,0 C35.1562584,0 41.6744186,11.2153043 41.6744186,32 C41.6744186,52.7846957 35.1562584,64 29.0232558,64 Z M29.0232558,2.7826087 C24.3690336,2.7826087 19.1834625,14.7826087 19.1834625,32 C19.1834625,49.2173913 24.3690336,61.2173913 29.0232558,61.2173913 C33.677478,61.2173913 38.8630491,49.2173913 38.8630491,32 C38.8630491,14.7826087 33.677478,2.7826087 29.0232558,2.7826087 Z" id="Shape" fill="#BBBBEA"></path>
                <path d="M48.2450497,51.3488372 C46.760264,51.3488372 45.1184471,51.195403 43.3308156,50.8843878 C37.0691982,49.793761 29.6158264,46.9130688 22.3419188,42.7731104 C4.20201577,32.4487869 -2.33580828,21.3254998 0.723495187,16.1032084 C2.53916796,13.0054967 7.23748416,11.9452803 13.9715972,13.1146976 C20.2332146,14.2053243 27.6865864,17.0860166 34.960494,21.2259749 C53.098995,31.5516807 59.6382211,42.6735856 56.5789176,47.8958769 C55.2455548,50.1711262 52.3530969,51.3488372 48.2450497,51.3488372 Z M9.03913629,15.4134457 C6.04993602,15.4134457 3.9482422,16.1267074 3.15327196,17.4854984 C0.831454109,21.4485236 8.71666159,31.8267564 23.7439827,40.3789843 C30.7402816,44.3613616 37.8697767,47.1259415 43.8173318,48.1612766 C49.1395664,49.0887932 53.0022525,48.4722919 54.1491408,46.513587 C56.4695566,42.5505618 48.5843491,32.1723289 33.557028,23.6201011 C26.5607291,19.6377238 19.4312341,16.8731439 13.4836789,15.8378088 C11.8544806,15.553057 10.3584784,15.4134457 9.03913629,15.4134457 Z" id="Shape" fill="#BBBBEA"></path>
                <path d="M9.05734934,51.3488372 C4.94790625,51.3488372 2.05685484,50.172515 0.723494086,47.8958961 C-2.33580473,42.6736337 4.20200938,31.5504082 22.3418848,21.2261419 C29.6143792,17.0862065 37.0691418,14.2055302 43.3307497,13.1149095 C50.0592442,11.9454987 54.7631615,13.0043269 56.5788315,16.1034038 C59.6381303,21.3256662 53.1003162,32.4488917 34.9604408,42.773158 C27.6865443,46.9130934 20.2331838,49.7937697 13.9715759,50.8843904 C12.1867512,51.1954039 10.5421328,51.3488372 9.05734934,51.3488372 Z M48.263203,15.4136449 C46.9424608,15.4136449 45.449265,15.5532554 43.8172651,15.8366233 C37.869719,16.873335 30.7402349,19.6365173 23.7439465,23.6188725 C8.71664833,32.1724352 0.831452844,42.5506105 3.1518651,46.5136138 C4.29875164,48.4723078 8.15862773,49.0874234 13.4836584,48.1612943 C19.4312045,47.1245826 26.5606887,44.3614003 33.556977,40.3790451 C48.5856773,31.8268646 56.4708727,21.4486893 54.1504605,17.485686 C53.3540894,16.1269026 51.2523988,15.4136449 48.263203,15.4136449 Z" id="Shape" fill="#BBBBEA"></path>
            </g>
        </g>
    </g>
</svg>