<?xml version="1.0" encoding="UTF-8" standalone="no"?>
<svg width="64px" height="58px" viewBox="0 0 64 58" version="1.1" xmlns="http://www.w3.org/2000/svg" xmlns:xlink="http://www.w3.org/1999/xlink">
    <!-- Generator: Sketch 46.2 (44496) - http://www.bohemiancoding.com/sketch -->
    <title>briefcase-25</title>
    <desc>Created with Sketch.</desc>
    <defs></defs>
    <g id="Tutor-Application" stroke="none" stroke-width="1" fill="none" fill-rule="evenodd">
        <g id="Select-Subject-Icon" transform="translate(-503.000000, -145.000000)" fill-rule="nonzero">
            <g id="briefcase-25" transform="translate(503.000000, 145.000000)">
                <path d="M58.4347826,40.047619 L5.56521739,40.047619 C4.02842435,40.047619 2.7826087,41.2841652 2.7826087,42.8095238 L2.7826087,55.2380952 C2.7826087,56.7634538 4.02842435,58 5.56521739,58 L58.4347826,58 C59.9715757,58 61.2173913,56.7634538 61.2173913,55.2380952 L61.2173913,42.8095238 C61.2173913,41.2841652 59.9715757,40.047619 58.4347826,40.047619 Z" id="Shape" fill="#444444"></path>
                <path d="M43.1304348,11.047619 C42.3614191,11.047619 41.7391304,10.4292976 41.7391304,9.66666667 L41.7391304,2.76190476 L22.2608696,2.76190476 L22.2608696,9.66666667 C22.2608696,10.4292976 21.6385809,11.047619 20.8695652,11.047619 C20.1005496,11.047619 19.4782609,10.4292976 19.4782609,9.66666667 L19.4782609,1.38095238 C19.4782609,0.618321429 20.1005496,0 20.8695652,0 L43.1304348,0 C43.8994504,0 44.5217391,0.618321429 44.5217391,1.38095238 L44.5217391,9.66666667 C44.5217391,10.4292976 43.8994504,11.047619 43.1304348,11.047619 Z" id="Shape" fill="#444444"></path>
                <path d="M61.2173913,8.28571429 L2.7826087,8.28571429 C1.24581565,8.28571429 0,9.52226048 0,11.047619 L0,40.047619 C0,41.5729776 1.24581565,42.8095238 2.7826087,42.8095238 L61.2173913,42.8095238 C62.7541843,42.8095238 64,41.5729776 64,40.047619 L64,11.047619 C64,9.52226048 62.7541843,8.28571429 61.2173913,8.28571429 Z" id="Shape" fill="#636363"></path>
                <rect id="Rectangle-path" fill="#A67C52" x="12.5217391" y="8.28571429" width="5.56521739" height="31.7619048"></rect>
                <rect id="Rectangle-path" fill="#A67C52" x="45.9130435" y="8.28571429" width="5.56521739" height="31.7619048"></rect>
                <rect id="Rectangle-path" fill="#A67C52" x="45.9130435" y="45.5714286" width="5.56521739" height="12.4285714"></rect>
                <rect id="Rectangle-path" fill="#A67C52" x="12.5217391" y="45.5714286" width="5.56521739" height="12.4285714"></rect>
                <path d="M19.4782609,46.952381 L11.1304348,46.952381 C10.3620313,46.952381 9.73913043,46.334101 9.73913043,45.5714286 L9.73913043,40.047619 C9.73913043,39.2849467 10.3620313,38.6666667 11.1304348,38.6666667 L19.4782609,38.6666667 C20.2466643,38.6666667 20.8695652,39.2849467 20.8695652,40.047619 L20.8695652,45.5714286 C20.8695652,46.334101 20.2466643,46.952381 19.4782609,46.952381 Z" id="Shape" fill="#E6E6E6"></path>
                <path d="M52.8695652,46.952381 L44.5217391,46.952381 C43.7533496,46.952381 43.1304348,46.334101 43.1304348,45.5714286 L43.1304348,40.047619 C43.1304348,39.2849467 43.7533496,38.6666667 44.5217391,38.6666667 L52.8695652,38.6666667 C53.6379548,38.6666667 54.2608696,39.2849467 54.2608696,40.047619 L54.2608696,45.5714286 C54.2608696,46.334101 53.6379548,46.952381 52.8695652,46.952381 Z" id="Shape" fill="#E6E6E6"></path>
                <rect id="Rectangle-path" fill="#916640" x="12.5217391" y="46.952381" width="5.56521739" height="2.76190476"></rect>
                <rect id="Rectangle-path" fill="#916640" x="45.9130435" y="46.952381" width="5.56521739" height="2.76190476"></rect>
            </g>
        </g>
    </g>
</svg>