<?xml version="1.0" encoding="UTF-8" standalone="no"?>
<svg width="28px" height="28px" viewBox="0 0 28 28" version="1.1" xmlns="http://www.w3.org/2000/svg" xmlns:xlink="http://www.w3.org/1999/xlink">
    <!-- Generator: Sketch 46.2 (44496) - http://www.bohemiancoding.com/sketch -->
    <title>chart-bar-33</title>
    <desc>Created with Sketch.</desc>
    <defs></defs>
    <g id="Tutor-Application" stroke="none" stroke-width="1" fill="none" fill-rule="evenodd">
        <g id="Select-Subject-Icon" transform="translate(-495.000000, -289.000000)" fill-rule="nonzero">
            <g id="chart-bar-33" transform="translate(495.000000, 289.000000)">
                <path d="M16.6666667,14.6666667 L11.3333333,14.6666667 C10.9651667,14.6666667 10.6666667,14.9651667 10.6666667,15.3333333 L10.6666667,27.3333333 C10.6666667,27.7015 10.9651667,28 11.3333333,28 L16.6666667,28 C17.0348333,28 17.3333333,27.7015 17.3333333,27.3333333 L17.3333333,15.3333333 C17.3333333,14.9651667 17.0348333,14.6666667 16.6666667,14.6666667 Z" id="Shape" fill-opacity="0.617045969" fill="#E9411B"></path>
                <path d="M6,20 L0.666666667,20 C0.2985,20 0,20.2985 0,20.6666667 L0,27.3333333 C0,27.7015 0.2985,28 0.666666667,28 L6,28 C6.36816667,28 6.66666667,27.7015 6.66666667,27.3333333 L6.66666667,20.6666667 C6.66666667,20.2985 6.36816667,20 6,20 Z" id="Shape" fill-opacity="0.384595788" fill="#E9411B"></path>
                <path d="M27.3333333,9.33333333 L22,9.33333333 C21.6318333,9.33333333 21.3333333,9.63183333 21.3333333,10 L21.3333333,27.3333333 C21.3333333,27.7015 21.6318333,28 22,28 L27.3333333,28 C27.7015,28 28,27.7015 28,27.3333333 L28,10 C28,9.63183333 27.7015,9.33333333 27.3333333,9.33333333 Z" id="Shape" fill="#E9411B"></path>
                <path d="M14.4713533,10.4713533 L22.6666667,2.27604 L22.6666667,6 C22.6666667,6.36816667 22.9651667,6.66666667 23.3333333,6.66666667 C23.7015,6.66666667 24,6.36816667 24,6 L24,0.666666667 C24,0.579833333 23.98226,0.493406667 23.9485267,0.411906667 C23.88094,0.24894 23.75106,0.11906 23.5880933,0.0514733333 C23.5065933,0.01774 23.4201667,0 23.3333333,0 L18,0 C17.6318333,0 17.3333333,0.2985 17.3333333,0.666666667 C17.3333333,1.03483333 17.6318333,1.33333333 18,1.33333333 L21.72396,1.33333333 L14,9.05729333 L10.4713533,5.52864667 C10.21094,5.26823333 9.78906,5.26823333 9.52864667,5.52864667 L4.19531333,10.86198 C3.9349,11.1223933 3.9349,11.5442733 4.19531333,11.8046867 C4.32552,11.9348933 4.49609333,12 4.66666667,12 C4.83724,12 5.00781333,11.9348933 5.13802,11.8046867 L10,6.94270667 L13.5286467,10.4713533 C13.78906,10.7317733 14.21094,10.7317733 14.4713533,10.4713533 Z" id="Shape" fill="#B3B3B3"></path>
            </g>
        </g>
    </g>
</svg>