<?xml version="1.0" encoding="UTF-8" standalone="no"?>
<svg width="64px" height="58px" viewBox="0 0 64 58" version="1.1" xmlns="http://www.w3.org/2000/svg" xmlns:xlink="http://www.w3.org/1999/xlink">
    <!-- Generator: Sketch 46.2 (44496) - http://www.bohemiancoding.com/sketch -->
    <title>desktop-screen</title>
    <desc>Created with Sketch.</desc>
    <defs></defs>
    <g id="Tutor-Application" stroke="none" stroke-width="1" fill="none" fill-rule="evenodd">
        <g id="Select-Subject-Icon" transform="translate(-1200.000000, -145.000000)" fill-rule="nonzero">
            <g id="desktop-screen" transform="translate(1200.000000, 145.000000)">
                <rect id="Rectangle-path" fill="#282828" x="25.0434783" y="42.8095238" width="13.9130435" height="13.8095238"></rect>
                <path d="M61.2173913,0 L2.7826087,0 C1.2459129,0 0,1.23664935 0,2.76190476 L0,44.1904762 C0,45.7157431 1.2459129,46.952381 2.7826087,46.952381 L61.2173913,46.952381 C62.7540867,46.952381 64,45.7157431 64,44.1904762 L64,2.76190476 C64,1.23664935 62.7540867,0 61.2173913,0 Z" id="Shape" fill="#444444"></path>
                <rect id="Rectangle-path" fill="#43A6DD" x="4.17391304" y="4.14285714" width="55.6521739" height="34.5238095"></rect>
                <rect id="Rectangle-path" fill="#444444" x="18.0869565" y="53.8571429" width="27.826087" height="4.14285714"></rect>
                <ellipse id="Oval" fill="#B3B3B3" cx="58.4347826" cy="42.8095238" rx="1.39130435" ry="1.38095238"></ellipse>
                <ellipse id="Oval" fill="#B3B3B3" cx="52.8695652" cy="42.8095238" rx="1.39130435" ry="1.38095238"></ellipse>
            </g>
        </g>
    </g>
</svg>