<?xml version="1.0" encoding="UTF-8" standalone="no"?>
<svg width="64px" height="64px" viewBox="0 0 64 64" version="1.1" xmlns="http://www.w3.org/2000/svg" xmlns:xlink="http://www.w3.org/1999/xlink">
    <!-- Generator: Sketch 46.2 (44496) - http://www.bohemiancoding.com/sketch -->
    <title>favourite-31</title>
    <desc>Created with Sketch.</desc>
    <defs></defs>
    <g id="Tutor-Application" stroke="none" stroke-width="1" fill="none" fill-rule="evenodd">
        <g id="Select-Subject-Icon" transform="translate(-779.000000, -143.000000)" fill-rule="nonzero" fill="#EFD358">
            <g id="favourite-31" transform="translate(779.000000, 143.000000)">
                <path d="M63.606256,21.774224 C63.355472,21.1836 62.775776,20.8 62.1336,20.8 L42.617968,20.8 L33.449216,1.189056 C33.185936,0.625776 32.621088,0.2664 32,0.2664 C31.378912,0.2664 30.814064,0.625776 30.550784,1.189056 L21.382032,20.8 L1.8664,20.8 C1.224208,20.8 0.644528,21.1836 0.393744,21.774224 C0.14296,22.364848 0.268752,23.048448 0.714832,23.510944 L15.1664,38.498448 L9.354688,61.745328 C9.199216,62.3672 9.429696,63.021888 9.940624,63.408608 C10.451552,63.795328 11.144528,63.839856 11.700784,63.522672 L32,51.922656 L52.299216,63.522656 C52.546096,63.664064 52.819536,63.7336 53.09296,63.7336 C53.434368,63.7336 53.774992,63.624224 54.05936,63.408608 C54.570304,63.021888 54.800768,62.3672 54.645296,61.745328 L48.8336,38.498432 L63.285168,23.510928 C63.731248,23.048432 63.857024,22.364848 63.606256,21.774224 Z" id="Shape"></path>
            </g>
        </g>
    </g>
</svg>