<?xml version="1.0" encoding="UTF-8" standalone="no"?>
<svg width="62px" height="62px" viewBox="0 0 62 62" version="1.1" xmlns="http://www.w3.org/2000/svg" xmlns:xlink="http://www.w3.org/1999/xlink">
    <!-- Generator: Sketch 46.2 (44496) - http://www.bohemiancoding.com/sketch -->
    <title>guitar</title>
    <desc>Created with Sketch.</desc>
    <defs></defs>
    <g id="Tutor-Application" stroke="none" stroke-width="1" fill="none" fill-rule="evenodd">
        <g id="Select-Subject-Icon" transform="translate(-920.000000, -144.000000)" fill-rule="nonzero">
            <g id="guitar" transform="translate(920.000000, 144.000000)">
                <path d="M20.106383,61.6666667 C9.01908,61.6666667 0,52.6946667 0,41.6666667 C0,35.65364 2.7004883,30.0123733 7.41030128,26.1894533 C7.98234128,25.7252667 8.82140745,25.80924 9.29003362,26.3730533 C10.3254587,27.6191467 11.825596,28.3333333 13.4042553,28.3333333 C16.3613011,28.3333333 18.7659574,25.94076 18.7659574,23 C18.7659574,22.58464 18.6978906,22.14388 18.5539021,21.6126267 C18.4347785,21.1777333 18.5447336,20.7128933 18.8458066,20.3769467 C21.9062662,16.95964 26.2744315,15 30.8297872,15 C39.6996377,15 46.9148936,22.1777333 46.9148936,31 C46.9148936,35.5319067 44.94483,39.8763067 41.5099896,42.9192667 C41.1722694,43.2180933 40.7036432,43.32812 40.2690504,43.2109333 C39.7323574,43.0670533 39.2886096,43 38.8723404,43 C35.9152947,43 33.5106383,45.3925733 33.5106383,48.3333333 C33.5106383,49.9049467 34.2292806,51.39584 35.4807019,52.42448 C36.0488145,52.89128 36.1312774,53.7272133 35.6652785,54.2955733 C31.823324,58.9798133 26.1513938,61.6666667 20.106383,61.6666667 Z" id="Shape" fill="#EA9860"></path>
                <rect id="Rectangle-path" fill="#87613E" transform="translate(41.553254, 20.333529) rotate(45.000000) translate(-41.553254, -20.333529) " x="38.8726787" y="5.24851328" width="5.36115015" height="30.1700307"></rect>
                <ellipse id="Oval" fill="#444444" cx="30.8297872" cy="31" rx="6.70212766" ry="6.66666667"></ellipse>
                <path d="M52.1139753,14.60948 L47.3074909,9.82842667 C46.7840279,9.30773333 46.7840279,8.46350667 47.3074909,7.94281333 L54.7948264,0.495093333 C55.3182894,-0.0256 56.1670066,-0.0256 56.6904696,0.495093333 L61.496954,5.27614667 C62.020417,5.79684 62.020417,6.64106667 61.496954,7.16176 L54.0096185,14.60948 C53.4861555,15.1301733 52.6374383,15.1301733 52.1139753,14.60948 Z" id="Shape" fill="#444444"></path>
                <path d="M21.4468085,48.3333333 C21.1038472,48.3333333 20.760886,48.20312 20.4990874,47.9427067 L13.7969598,41.27604 C13.2733628,40.7552133 13.2733628,39.9114533 13.7969598,39.3906267 C14.3205568,38.8698 15.1688049,38.8698 15.6924019,39.3906267 L22.3945296,46.0572933 C22.9181266,46.57812 22.9181266,47.42188 22.3945296,47.9427067 C22.1327311,48.20312 21.7897698,48.3333333 21.4468085,48.3333333 Z" id="Shape" fill="#87613E"></path>
            </g>
        </g>
    </g>
</svg>