<?xml version="1.0" encoding="UTF-8" standalone="no"?>
<svg width="28px" height="24px" viewBox="0 0 28 24" version="1.1" xmlns="http://www.w3.org/2000/svg" xmlns:xlink="http://www.w3.org/1999/xlink">
    <!-- Generator: Sketch 46.2 (44496) - http://www.bohemiancoding.com/sketch -->
    <title>hat-3</title>
    <desc>Created with Sketch.</desc>
    <defs></defs>
    <g id="Tutor-Application" stroke="none" stroke-width="1" fill="none" fill-rule="evenodd">
        <g id="Select-Subject-Icon" transform="translate(-810.000000, -291.000000)" fill-rule="nonzero">
            <g id="hat-3" transform="translate(810.000000, 291.000000)">
                <path d="M14,23.3846154 C9.5626087,23.3846154 6.08695652,21.4923077 6.08695652,19.0769231 L6.08695652,11.0769231 C6.08695652,10.7366154 6.35965217,10.4615385 6.69565217,10.4615385 L21.3043478,10.4615385 C21.6403478,10.4615385 21.9130435,10.7366154 21.9130435,11.0769231 L21.9130435,19.0769231 C21.9130435,21.4923077 18.4373913,23.3846154 14,23.3846154 Z" id="Shape" fill="#444444"></path>
                <path d="M26.173913,18.4615385 C25.837913,18.4615385 25.5652174,18.1864615 25.5652174,17.8461538 L25.5652174,8.61538462 C25.5652174,8.27507692 25.837913,8 26.173913,8 C26.509913,8 26.7826087,8.27507692 26.7826087,8.61538462 L26.7826087,17.8461538 C26.7826087,18.1864615 26.509913,18.4615385 26.173913,18.4615385 Z" id="Shape" fill="#444444"></path>
                <path d="M14,16 C13.8995652,16 13.7991304,15.9747692 13.7084348,15.9249231 L0.317130435,8.54030769 C0.12173913,8.43261538 0,8.22523077 0,8 C0,7.77476923 0.12173913,7.56738462 0.317130435,7.45969231 L13.7084348,0.0750769231 C13.8904348,-0.0246153846 14.1095652,-0.0246153846 14.2915652,0.0750769231 L27.6828696,7.45969231 C27.8782609,7.56738462 28,7.77476923 28,8 C28,8.22523077 27.8782609,8.43261538 27.6828696,8.54030769 L14.2915652,15.9249231 C14.2008696,15.9747692 14.1004348,16 14,16 Z" id="Shape" fill="#5B5B5B"></path>
            </g>
        </g>
    </g>
</svg>