<?xml version="1.0" encoding="UTF-8" standalone="no"?>
<svg width="64px" height="59px" viewBox="0 0 64 59" version="1.1" xmlns="http://www.w3.org/2000/svg" xmlns:xlink="http://www.w3.org/1999/xlink">
    <!-- Generator: Sketch 46.2 (44496) - http://www.bohemiancoding.com/sketch -->
    <title>ic_translate_48px</title>
    <desc>Created with Sketch.</desc>
    <defs></defs>
    <g id="Tutor-Application" stroke="none" stroke-width="1" fill="none" fill-rule="evenodd">
        <g id="Select-Subject-Icon" transform="translate(-362.000000, -145.000000)">
            <g id="ic_translate_48px" transform="translate(362.000000, 145.000000)">
                <path d="M34.5298302,38.0351752 L27.1409701,30.7335852 L27.2282401,30.6463152 C32.2899002,25.0028551 35.8970602,18.5157851 38.0206302,11.6505451 L46.5440002,11.6505451 L46.5440002,5.81800003 L26.1810001,5.81800003 L26.1810001,0 L20.3630001,0 L20.3630001,5.81800003 L0,5.81800003 L0,11.6069101 L32.4935302,11.6069101 C30.5299552,17.2212801 27.4609601,22.5447501 23.2720001,27.1991501 C20.5666301,24.1883351 18.3267001,20.9157101 16.5522101,17.4540001 L10.7342101,17.4540001 C12.8577801,22.1956701 15.7667801,26.6755301 19.4030301,30.7190402 L4.61076502,45.3367652 L8.72700005,49.4530003 L23.2720001,34.9080002 L32.3189902,43.9549902 L34.5298302,38.0351752 Z" id="Path" fill="#47525D"></path>
                <path d="M50.9075003,23.2720001 L63.9980003,58.1800003 L58.1800003,58.1800003 L54.9073753,49.4530003 L41.0896252,49.4530003 L37.8170002,58.1800003 L31.9990002,58.1800003 L45.0895002,23.2720001 L50.9075003,23.2720001 Z M43.2713752,43.6350002 L52.7256253,43.6350002 L47.9985003,31.0244852 L43.2713752,43.6350002 Z" id="Combined-Shape" fill="#36B37E"></path>
            </g>
        </g>
    </g>
</svg>