<?xml version="1.0" encoding="UTF-8" standalone="no"?>
<svg width="28px" height="26px" viewBox="0 0 28 26" version="1.1" xmlns="http://www.w3.org/2000/svg" xmlns:xlink="http://www.w3.org/1999/xlink">
    <!-- Generator: Sketch 46.2 (44496) - http://www.bohemiancoding.com/sketch -->
    <title>kid</title>
    <desc>Created with Sketch.</desc>
    <defs></defs>
    <g id="Tutor-Application" stroke="none" stroke-width="1" fill="none" fill-rule="evenodd">
        <g id="Select-Subject-Icon" transform="translate(-616.000000, -291.000000)" fill-rule="nonzero">
            <g id="kid" transform="translate(616.000000, 291.000000)">
                <path d="M15.4893617,26 C8.59117447,26 2.9787234,20.3036419 2.9787234,13.3023256 C2.9787234,6.3010093 8.59117447,0.604651163 15.4893617,0.604651163 C22.3875489,0.604651163 28,6.3010093 28,13.3023256 C28,20.3036419 22.3875489,26 15.4893617,26 Z" id="Shape" fill="#FFD764"></path>
                <path d="M15.5239566,20.5581395 C13.6093106,20.5581395 11.8267353,19.5070865 10.8714468,17.8153633 C10.7079685,17.5254391 10.8068681,17.1563902 11.0925217,16.9898753 C11.3787591,16.8257247 11.7412102,16.9243312 11.9058502,17.2142553 C12.6487915,18.5310223 14.0351787,19.3488372 15.5239566,19.3488372 C17.0127345,19.3488372 18.3991217,18.5310223 19.142057,17.2142553 C19.3061191,16.9237386 19.6697319,16.8251321 19.9553855,16.9898753 C20.2410391,17.1563902 20.3399447,17.5254391 20.1764604,17.8153633 C19.2211838,19.5070865 17.4386026,20.5581395 15.5239566,20.5581395 Z" id="Shape" fill="#444444"></path>
                <ellipse id="Oval" fill="#444444" cx="20.8510638" cy="10.2790698" rx="1.78723404" ry="1.81395349"></ellipse>
                <ellipse id="Oval" fill="#444444" cx="10.1276596" cy="10.2790698" rx="1.78723404" ry="1.81395349"></ellipse>
                <path d="M27.0074774,9.06976744 L0.595744681,9.06976744 C0.266458723,9.06976744 0,8.79932512 0,8.46511628 C0,8.13090744 0.266458723,7.86046512 0.595744681,7.86046512 L27.0074774,7.86046512 C27.3367634,7.86046512 27.6032221,8.13090744 27.6032221,8.46511628 C27.6032221,8.79932512 27.3367694,9.06976744 27.0074774,9.06976744 Z" id="Shape" fill="#A56EDC"></path>
                <path d="M27.270046,8.46511628 C25.5470272,3.54158698 20.9237149,0 15.4893617,0 C10.0550085,0 5.43169617,3.54158698 3.70867745,8.46511628 L27.270046,8.46511628 Z" id="Shape" fill="#A56EDC"></path>
            </g>
        </g>
    </g>
</svg>