<?xml version="1.0" encoding="UTF-8" standalone="no"?>
<svg width="22px" height="28px" viewBox="0 0 22 28" version="1.1" xmlns="http://www.w3.org/2000/svg" xmlns:xlink="http://www.w3.org/1999/xlink">
    <!-- Generator: Sketch 46.2 (44496) - http://www.bohemiancoding.com/sketch -->
    <title>lab</title>
    <desc>Created with Sketch.</desc>
    <defs></defs>
    <g id="Tutor-Application" stroke="none" stroke-width="1" fill="none" fill-rule="evenodd">
        <g id="Select-Subject-Icon" transform="translate(-244.000000, -289.000000)" fill-rule="nonzero">
            <g id="lab" transform="translate(244.000000, 289.000000)">
                <path d="M7.94444444,4.86956522 L7.94444444,13.8020522 L1.10704,23.1666948 C0.427301111,24.0969765 0.331216111,25.3119878 0.855195,26.3373783 C1.37917389,27.3627687 2.42295778,28 3.57834278,28 L18.4216572,28 C19.5770361,28 20.62082,27.3627687 21.1447989,26.3373783 C21.6687778,25.3119878 21.5726989,24.0969765 20.8929539,23.1666948 L14.0555556,13.8020522 L14.0555556,4.86956522 L7.94444444,4.86956522 Z" id="Shape" fill="#E6E6E6"></path>
                <path d="M15.9652778,4.86956522 C16.3030572,4.86956522 16.5763889,4.59731391 16.5763889,4.26086957 L16.5763889,0.608695652 C16.5763889,0.272251304 16.3030572,0 15.9652778,0 L6.11111111,0 C5.77333167,0 5.5,0.272251304 5.5,0.608695652 L5.5,4.26086957 C5.5,4.59731391 5.77333167,4.86956522 6.11111111,4.86956522 L7.94444444,4.86956522 L14.0555556,4.86956522 L15.9652778,4.86956522 Z" id="Shape" fill="#E6E6E6"></path>
                <path d="M14.7328744,18.8695652 L7.26705222,18.8695652 L3.08360556,24.5992722 C2.945745,24.7877061 2.92724667,25.0248843 3.03347611,25.2329365 C3.14029833,25.4409826 3.34380444,25.5652174 3.57834278,25.5652174 L18.4216572,25.5652174 C18.6561956,25.5652174 18.8597017,25.4409826 18.9665239,25.2329304 C19.0727533,25.0248783 19.0542489,24.7877 18.9157956,24.5986757 L14.7328744,18.8695652 Z" id="Shape" fill="#72C472"></path>
                <rect id="Rectangle-path" fill="#D1D1D1" x="7.94444444" y="4.86956522" width="6.11111111" height="1.82608696"></rect>
                <ellipse id="Oval" fill="#9EDB9E" cx="8.55555556" cy="23.1304348" rx="1.22222222" ry="1.2173913"></ellipse>
                <ellipse id="Oval" fill="#9EDB9E" cx="12.8333333" cy="21.9130435" rx="1.22222222" ry="1.2173913"></ellipse>
            </g>
        </g>
    </g>
</svg>