<?xml version="1.0" encoding="UTF-8" standalone="no"?>
<svg width="62px" height="63px" viewBox="0 0 62 63" version="1.1" xmlns="http://www.w3.org/2000/svg" xmlns:xlink="http://www.w3.org/1999/xlink">
    <!-- Generator: Sketch 46.2 (44496) - http://www.bohemiancoding.com/sketch -->
    <title>needle</title>
    <desc>Created with Sketch.</desc>
    <defs></defs>
    <g id="Tutor-Application" stroke="none" stroke-width="1" fill="none" fill-rule="evenodd">
        <g id="Select-Subject-Icon" transform="translate(-83.000000, -143.000000)">
            <g id="needle" transform="translate(83.000000, 143.000000)">
                <path d="M52.7800233,12.6647273 C53.3528837,12.096 53.3528837,11.1767273 52.7800233,10.608 C52.2071628,10.0392727 51.2812093,10.0392727 50.7083488,10.608 L48.4374186,12.8625455 L50.509093,14.9192727 L52.7800233,12.6647273 Z" id="Shape"></path>
                <path d="M44.8478837,16.4261818 C44.2750233,16.9949091 44.2750233,17.9141818 44.8478837,18.4829091 C45.1335814,18.7665455 45.5086512,18.9090909 45.8837209,18.9090909 C46.2587907,18.9090909 46.6338605,18.7665455 46.9195581,18.4829091 L48.4359535,16.9774545 L46.3642791,14.9207273 L44.8478837,16.4261818 Z" id="Shape"></path>
                <path d="M36.2051628,0.718545455 C35.6323023,0.149818182 34.7063488,0.149818182 34.1334884,0.718545455 C33.5606279,1.28727273 33.5606279,2.20654545 34.1334884,2.77527273 L40.6869535,9.28145455 L42.5022326,6.97018182 L36.2051628,0.718545455 Z" id="Shape" fill="#999999" fill-rule="nonzero"></path>
                <path d="M44.4933256,62.4290909 C44.7790233,62.7127273 45.154093,62.8552727 45.5291628,62.8552727 C45.9042326,62.8552727 46.2793023,62.7127273 46.565,62.4290909 C47.1378605,61.8603636 47.1378605,60.9410909 46.565,60.3723636 L28.5030465,42.4421818 L26.1749767,44.2443636 L44.4933256,62.4290909 Z" id="Shape" fill="#999999" fill-rule="nonzero"></path>
                <path d="M58.9965116,4.43636364 C54.9908837,0.459636364 48.4974884,0.459636364 44.4918605,4.43636364 L0.419697674,60.5483636 C-0.642511628,61.8996364 1.11416279,63.6436364 2.47672093,62.5905455 L58.9965116,18.8363636 C63.0006744,14.8596364 63.0006744,8.41309091 58.9965116,4.43636364 Z M52.7800233,12.6647273 L46.9195581,18.4829091 C46.6338605,18.7665455 46.2587907,18.9090909 45.8837209,18.9090909 C45.5086512,18.9090909 45.1335814,18.7665455 44.8478837,18.4829091 C44.2750233,17.9141818 44.2750233,16.9949091 44.8478837,16.4261818 L50.7083488,10.608 C51.2812093,10.0392727 52.2071628,10.0392727 52.7800233,10.608 C53.3528837,11.1767273 53.3528837,12.096 52.7800233,12.6647273 Z" id="Shape" fill="#E9411B" fill-rule="nonzero"></path>
                <path d="M58.9950465,23.3454545 L48.4359535,12.8625455 L46.3642791,14.9192727 L56.9233721,25.4021818 C58.3064419,26.7767273 59.0697674,28.6036364 59.0697674,30.5454545 C59.0697674,32.4872727 58.3064419,34.3141818 56.9233721,35.6887273 C55.5403023,37.0632727 53.7001163,37.8181818 51.744186,37.8181818 C49.7882558,37.8181818 47.9480698,37.0618182 46.565,35.6887273 L22.7363488,12.032 C18.7365814,8.06254545 12.23,8.06254545 8.23316279,12.032 C6.29627907,13.9549091 5.2282093,16.512 5.2282093,19.232 C5.2282093,21.952 6.29627907,24.5076364 8.23316279,26.432 L18.8992093,37.0210909 L20.7144884,34.7098182 L10.3033721,24.3738182 C8.92030233,23.0007273 8.15697674,21.1738182 8.15697674,19.2305455 C8.15697674,17.2872727 8.92030233,15.4618182 10.3033721,14.0872727 C13.1588837,11.2523636 17.8076977,11.2523636 20.6632093,14.0872727 L44.4933256,37.7454545 C46.4302093,39.6683636 49.0044186,40.7272727 51.744186,40.7272727 C54.4839535,40.7272727 57.0581628,39.6683636 58.9950465,37.7454545 C60.9319302,35.8225455 62,33.2654545 62,30.5454545 C62,27.8254545 60.9319302,25.2698182 58.9950465,23.3454545 Z" id="Shape" fill="#999999" fill-rule="nonzero"></path>
            </g>
        </g>
    </g>
</svg>