<?xml version="1.0" encoding="UTF-8" standalone="no"?>
<svg width="64px" height="64px" viewBox="0 0 64 64" version="1.1" xmlns="http://www.w3.org/2000/svg" xmlns:xlink="http://www.w3.org/1999/xlink">
    <!-- Generator: Sketch 46.2 (44496) - http://www.bohemiancoding.com/sketch -->
    <title>paper-diploma</title>
    <desc>Created with Sketch.</desc>
    <defs></defs>
    <g id="Tutor-Application" stroke="none" stroke-width="1" fill="none" fill-rule="evenodd">
        <g id="Select-Subject-Icon" transform="translate(-221.000000, -143.000000)" fill-rule="nonzero">
            <g id="paper-diploma" transform="translate(221.000000, 143.000000)">
                <path d="M48.6015038,0 L6.73684211,0 C10.5897865,0 13.7142857,3.11513043 13.7142857,6.95652174 L13.7142857,57.0434783 C13.7142857,60.8848696 16.838785,64 20.6917293,64 L55.5789474,64 L55.5789474,6.95652174 C55.5789474,3.11513043 52.4544481,0 48.6015038,0 Z" id="Shape" fill="#E6E6E6"></path>
                <path d="M45.754386,15.1578947 L23.2982456,15.1578947 C22.5235088,15.1578947 21.8947368,14.592 21.8947368,13.8947368 C21.8947368,13.1974737 22.5235088,12.6315789 23.2982456,12.6315789 L45.754386,12.6315789 C46.5291228,12.6315789 47.1578947,13.1974737 47.1578947,13.8947368 C47.1578947,14.592 46.5291228,15.1578947 45.754386,15.1578947 Z" id="Shape" fill="#B3B3B3"></path>
                <path d="M45.754386,26.1052632 L23.2982456,26.1052632 C22.5235088,26.1052632 21.8947368,25.5393684 21.8947368,24.8421053 C21.8947368,24.1448421 22.5235088,23.5789474 23.2982456,23.5789474 L45.754386,23.5789474 C46.5291228,23.5789474 47.1578947,24.1448421 47.1578947,24.8421053 C47.1578947,25.5393684 46.5291228,26.1052632 45.754386,26.1052632 Z" id="Shape" fill="#B3B3B3"></path>
                <path d="M45.754386,37.0526316 L23.2982456,37.0526316 C22.5235088,37.0526316 21.8947368,36.4867368 21.8947368,35.7894737 C21.8947368,35.0922105 22.5235088,34.5263158 23.2982456,34.5263158 L45.754386,34.5263158 C46.5291228,34.5263158 47.1578947,35.0922105 47.1578947,35.7894737 C47.1578947,36.4867368 46.5291228,37.0526316 45.754386,37.0526316 Z" id="Shape" fill="#B3B3B3"></path>
                <path d="M33.122807,48.8421053 L23.2982456,48.8421053 C22.5235088,48.8421053 21.8947368,48.2762105 21.8947368,47.5789474 C21.8947368,46.8816842 22.5235088,46.3157895 23.2982456,46.3157895 L33.122807,46.3157895 C33.8975439,46.3157895 34.5263158,46.8816842 34.5263158,47.5789474 C34.5263158,48.2762105 33.8975439,48.8421053 33.122807,48.8421053 Z" id="Shape" fill="#B3B3B3"></path>
                <path d="M7.15789474,0 C3.20530526,0 0,3.01675789 0,6.73684211 L14.3157895,6.73684211 C14.3157895,3.01675789 11.1104842,0 7.15789474,0 Z" id="Shape" fill="#B3B3B3"></path>
                <path d="M27.9796265,57.2631579 C27.9796265,60.9832421 24.8777182,64 21.0526316,64 L57.0730051,64 C60.8980917,64 64,60.9832421 64,57.2631579 L27.9796265,57.2631579 Z" id="Shape" fill="#B3B3B3"></path>
                <polygon id="Shape" fill="#E86C60" points="55.5789474 30.3157895 44.6315789 30.3157895 44.6315789 48 50.1052632 45.2793522 55.5789474 48"></polygon>
                <path d="M50.5263158,33.6842105 C43.5621053,33.6842105 37.8947368,28.0168421 37.8947368,21.0526316 C37.8947368,14.0884211 43.5621053,8.42105263 50.5263158,8.42105263 C57.4905263,8.42105263 63.1578947,14.0884211 63.1578947,21.0526316 C63.1578947,28.0168421 57.4905263,33.6842105 50.5263158,33.6842105 Z" id="Shape" fill="#EFD358"></path>
                <path d="M50.1052632,10.9473684 C44.7651128,10.9473684 40.4210526,15.2914286 40.4210526,20.6315789 C40.4210526,25.9717293 44.7651128,30.3157895 50.1052632,30.3157895 C55.4454135,30.3157895 59.7894737,25.9717293 59.7894737,20.6315789 C59.7894737,15.2914286 55.4454135,10.9473684 50.1052632,10.9473684 Z M50.1052632,27.5488722 C46.2910677,27.5488722 43.1879699,24.4457744 43.1879699,20.6315789 C43.1879699,16.8173835 46.2910677,13.7142857 50.1052632,13.7142857 C53.9194586,13.7142857 57.0225564,16.8173835 57.0225564,20.6315789 C57.0225564,24.4457744 53.9194586,27.5488722 50.1052632,27.5488722 Z" id="Shape" fill="#C19A3A"></path>
            </g>
        </g>
    </g>
</svg>