<?xml version="1.0" encoding="UTF-8" standalone="no"?>
<svg width="64px" height="64px" viewBox="0 0 64 64" version="1.1" xmlns="http://www.w3.org/2000/svg" xmlns:xlink="http://www.w3.org/1999/xlink">
    <!-- Generator: Sketch 46.2 (44496) - http://www.bohemiancoding.com/sketch -->
    <title>volleyball</title>
    <desc>Created with Sketch.</desc>
    <defs></defs>
    <g id="Tutor-Application" stroke="none" stroke-width="1" fill="none" fill-rule="evenodd">
        <g id="Select-Subject-Icon" transform="translate(-1059.000000, -143.000000)" fill-rule="nonzero">
            <g id="volleyball" transform="translate(1059.000000, 143.000000)">
                <path d="M15.7144487,36.9684035 C17.1163687,39.3965217 18.7886609,41.5710191 20.6709704,43.476647 C25.2193809,40.7703096 29.1655096,36.9094957 32,32 C29.1660522,27.0914504 27.7839443,21.7442922 27.7139061,16.4530922 C27.7139061,16.4530922 27.7114852,16.453593 27.7103165,16.453913 C27.7114852,16.453593 27.7127374,16.4533983 27.7127374,16.4533983 C27.6375791,10.6890574 29.1191374,4.99148522 31.9939896,0.000153043478 C26.2357843,0.00121043478 20.8378574,1.53074087 16.17024,4.19378087 C10.2216348,13.8788313 9.63230609,26.4337948 15.7144487,36.9684035 Z" id="Shape" fill="#458BC4"></path>
                <path d="M35.84,15.4121043 C33.032153,15.4121043 30.3088278,15.7738574 27.7139061,16.4530783 C27.7839443,21.7442922 29.1660522,27.0914504 32,32 C37.6678957,32 42.9896904,33.4765635 47.6070678,36.0615235 C47.6073878,36.0603548 47.607847,36.0591861 47.608167,36.0580035 C47.607847,36.0591722 47.6073878,36.0603409 47.6070678,36.0615235 C52.6357704,38.8767165 56.828313,43.0072626 59.7134748,47.9910122 C62.4046052,43.3373357 63.9609739,37.9470609 63.9951165,32.1928487 C58.5817183,22.1993322 48.0038261,15.4121043 35.84,15.4121043 Z" id="Shape" fill="#E6E6E6"></path>
                <path d="M15.7144487,36.9684035 C9.63230609,26.4337948 10.2216348,13.8788313 16.17024,4.19379478 C6.51437913,9.70281739 0,20.0873878 0,32 C0,37.8326122 1.56816696,43.2957774 4.29441391,48.0047722 C10.0520348,47.9980939 15.7191374,46.4230539 20.6709704,43.476647 C18.7886748,41.5710191 17.1163687,39.3965217 15.7144487,36.9684035 Z" id="Shape" fill="#E6E6E6"></path>
                <path d="M27.7139061,16.4530922 C30.3088278,15.7738713 33.032153,15.4121183 35.84,15.4121183 C48.0038261,15.4121183 58.5817183,22.1993461 63.9951165,32.1928626 C63.9955061,32.1282365 64,32.0646817 64,32 C64,14.326873 49.673127,0 32,0 C31.9979687,0 31.9960209,0.000153043478 31.9939896,0.000153043478 C29.1191374,4.99148522 27.6375791,10.6890574 27.7139061,16.4530922 Z" id="Shape" fill="#EFD358"></path>
                <path d="M47.6070678,36.0615235 C46.8978504,38.648473 45.8494887,41.1877704 44.4455374,43.6194922 C38.3631304,54.1545739 27.1948104,59.9216417 15.8325009,59.611993 C20.5779339,62.396633 26.100313,64 32,64 C43.8461635,64 54.1810922,57.5580104 59.7134748,47.9910122 C56.828327,43.0072626 52.6357843,38.8767165 47.6070678,36.0615235 Z" id="Shape" fill="#458BC4"></path>
                <path d="M44.4455513,43.6194922 C45.8495026,41.1877704 46.8978643,38.648473 47.6070817,36.0615235 C42.9896904,33.4765635 37.6678957,32 32,32 C29.1655096,36.9094957 25.2193809,40.7703096 20.6709704,43.476647 C20.6746017,43.48032 20.677927,43.4843826 20.6815583,43.4880557 C20.677927,43.4843826 20.6746017,43.48032 20.6709704,43.476647 C15.7191374,46.4230539 10.0520209,47.9980939 4.29441391,48.0047722 C7.07116522,52.8010574 11.0540661,56.8079722 15.8325009,59.611993 C27.1948104,59.9216417 38.3631304,54.1545739 44.4455513,43.6194922 Z" id="Shape" fill="#EFD358"></path>
            </g>
        </g>
    </g>
</svg>