<?xml version="1.0" encoding="UTF-8" standalone="no"?>
<svg width="134px" height="134px" viewBox="0 0 134 134" version="1.1" xmlns="http://www.w3.org/2000/svg" xmlns:xlink="http://www.w3.org/1999/xlink">
    <!-- Generator: Sketch 46.2 (44496) - http://www.bohemiancoding.com/sketch -->
    <title>circle-09</title>
    <desc>Created with Sketch.</desc>
    <defs></defs>
    <g id="Tutor-Application" stroke="none" stroke-width="1" fill="none" fill-rule="evenodd">
        <g id="Upload-Profile-Picture" transform="translate(-252.000000, -344.000000)">
            <g id="circle-09" transform="translate(252.000000, 344.000000)">
                <circle id="Oval" fill="#B2B2B2" fill-rule="nonzero" cx="67" cy="67" r="67"></circle>
                <path d="M67.5,77 C55.6258736,77 46,67.0088852 46,54.6842105 L46,46.3157895 C46,33.9911092 55.6258736,24 67.5,24 C79.3741264,24 89,33.9911092 89,46.3157895 L89,54.6842105 C89,67.0088852 79.3741264,77 67.5,77 Z" id="Shape" fill="#FAFAFA"></path>
                <path d="M67,128 C85.2243086,128 101.617879,120.037018 113,107.349655 C112.999009,102.813431 109.700873,97.588028 105.632125,95.692871 L80.5294603,84 C80.5294603,84 75.1176762,89.5 67,89.5 C58.8823238,89.5 53.4705397,84 53.4705397,84 L28.3678746,95.692871 C24.2925211,97.5910492 21.0009909,102.806885 21,107.349655 C32.3821209,120.037018 48.7756914,128 67,128 Z" id="Shape" fill="#FAFAFA"></path>
            </g>
        </g>
    </g>
</svg>